<?xml version="1.0" encoding="utf-8"?>
<!-- Generator: Adobe Illustrator 22.1.0, SVG Export Plug-In . SVG Version: 6.00 Build 0)  -->
<svg version="1.1" id="Layer_1" xmlns="http://www.w3.org/2000/svg" xmlns:xlink="http://www.w3.org/1999/xlink" x="0px" y="0px"
	 viewBox="0 0 636.1 140.4" style="enable-background:new 0 0 636.1 140.4;" xml:space="preserve">
<style type="text/css">
	.st0{fill:url(#SVGID_1_);}
	.st1{fill:url(#SVGID_2_);}
	.st2{fill:url(#SVGID_3_);}
	.st3{fill:url(#SVGID_4_);}
	.st4{fill:url(#SVGID_5_);}
	.st5{fill:url(#SVGID_6_);}
	.st6{fill:url(#SVGID_7_);}
	.st7{fill:url(#SVGID_8_);}
	.st8{fill:url(#SVGID_9_);}
</style>
<linearGradient id="SVGID_1_" gradientUnits="userSpaceOnUse" x1="-14.647" y1="54.2922" x2="656.5567" y2="54.2922">
	<stop  offset="1.502404e-03" style="stop-color:#DA8CFF"/>
	<stop  offset="1" style="stop-color:#9A55FF"/>
</linearGradient>
<path class="st0" d="M202.9,65.2v38.1h-23.9v-98h38.7c7.6,0,14.2,1.4,19.6,4.2c5.4,2.8,9.5,6.5,12.3,11c2.7,4.6,4.1,9.5,4.1,14.8
	c0,4.5-1.1,9-3.3,13.5c-2.2,4.5-6,8.4-11.4,11.6c-5.4,3.2-12.5,4.8-21.4,4.8H202.9z M226.3,43.8c2.1-2.1,3.1-5,3.1-8.5
	c0-3.4-1.1-6.3-3.2-8.5c-2.1-2.2-5-3.3-8.5-3.3h-14.8V47h14.8C221.4,47,224.2,46,226.3,43.8z"/>
<linearGradient id="SVGID_2_" gradientUnits="userSpaceOnUse" x1="-14.647" y1="64.76" x2="656.5567" y2="64.76">
	<stop  offset="1.502404e-03" style="stop-color:#DA8CFF"/>
	<stop  offset="1" style="stop-color:#9A55FF"/>
</linearGradient>
<path class="st1" d="M340.9,25.4v77.9H317V91.8c-2.3,3.8-5.5,6.8-9.6,9c-4,2.2-8.7,3.3-14,3.3c-5.9,0-11-1.3-15.6-4
	c-4.5-2.7-8-6.5-10.6-11.5c-2.6-5-3.8-10.9-3.8-17.7V25.4h23.7v42.3c0,5,1.3,8.9,4,11.7c2.7,2.7,6.3,4.1,11,4.1
	c4.7,0,8.3-1.4,11-4.1c2.7-2.7,4-6.6,4-11.7V25.4H340.9z"/>
<linearGradient id="SVGID_3_" gradientUnits="userSpaceOnUse" x1="-14.647" y1="63.9224" x2="656.5567" y2="63.9224">
	<stop  offset="1.502404e-03" style="stop-color:#DA8CFF"/>
	<stop  offset="1" style="stop-color:#9A55FF"/>
</linearGradient>
<path class="st2" d="M395.3,28.7c3.8-2.7,8-4.1,12.7-4.1v24.3h-5.9c-5.5,0-9.6,1.3-12.4,3.9c-2.7,2.6-4.1,7.2-4.1,13.7v36.8h-23.9
	V25.4h23.9v14.5C388.3,35.2,391.5,31.4,395.3,28.7z"/>
<linearGradient id="SVGID_4_" gradientUnits="userSpaceOnUse" x1="-14.647" y1="82.4849" x2="656.5567" y2="82.4849">
	<stop  offset="1.502404e-03" style="stop-color:#DA8CFF"/>
	<stop  offset="1" style="stop-color:#9A55FF"/>
</linearGradient>
<text x="100" y="50" font-family="Arial" font-size="24" fill="purple">LIBRARY</text>
</svg>